<svg width="1082" height="405" viewBox="0 0 1082 405" fill="none" xmlns="http://www.w3.org/2000/svg">
<mask id="mask0_5_33" style="mask-type:alpha" maskUnits="userSpaceOnUse" x="0" y="0" width="1082" height="405">
<g clip-path="url(#clip0_5_33)">
<path d="M299.506 0H368.863V256.561H299.506V0ZM407.5 0V256.561H600.269V205.317H476.857V155.444H591.057V104.124H476.857V51.4721H600.269V0H407.5ZM641.913 0V256.561H834.682V205.317H711.27V155.444H825.47V104.124H711.27V51.4721H834.682V0H641.913ZM876.25 0V256.561H1068.94V205.317H945.569V155.444H1059.77V104.124H945.569V51.4721H1068.94V0H876.25Z" fill="white"/>
<path d="M129.882 257.17C129.13 256.955 128.413 256.635 127.751 256.218C125.456 254.417 123.453 252.272 121.812 249.861C119.566 246.51 111.763 236.421 105.52 228.883C93.95 214.606 81.5975 200.981 68.5192 188.071C55.4533 174.989 41.3198 163.018 26.2655 152.284C22.0401 149.277 13.7797 143.947 11.5338 142.767C6.66516 140.726 2.63718 137.087 0.113826 132.449C-0.285338 130.528 -0.285338 128.546 0.113826 126.625C0.989354 123.807 4.71986 120.533 10.4298 117.678C20.1644 112.322 29.2466 105.858 37.4951 98.4139C62.7294 76.1338 86.5542 52.3061 108.832 27.0687C113.435 22.2215 117.613 16.9864 121.317 11.4215C123.122 7.75118 126.022 4.73159 129.616 2.77935C131.556 2.32225 133.576 2.32225 135.516 2.77935C136.295 3.02017 137.038 3.36599 137.724 3.80727C140.183 5.78048 142.326 8.11695 144.081 10.7362L146.289 13.9722C147.05 15.0763 156.947 27.1068 160.83 31.6372C187.477 62.4367 213.552 88.4393 235.136 105.191C243.045 111.502 251.519 117.071 260.45 121.828C262.7 122.793 264.609 124.411 265.932 126.472C266.579 128.438 266.579 130.56 265.932 132.526C264.723 134.721 262.932 136.539 260.755 137.779C248.89 145.572 237.453 153.997 226.495 163.02C200.527 184.191 176.698 207.858 155.349 233.68C150.781 239.239 143.091 249.29 142.025 251.041C140.717 252.992 139.111 254.726 137.267 256.18C136.134 256.859 134.873 257.297 133.563 257.467C132.254 257.637 130.923 257.536 129.654 257.17H129.882ZM137.039 224.619C146.365 221.079 170.918 201.206 194.824 177.792C205.991 167.383 216.114 155.907 225.048 143.528C227.029 140.53 228.652 137.31 229.883 133.934C230.539 131.425 230.446 128.778 229.616 126.32C226.19 115.927 213.057 99.2514 192.235 78.8073C169.395 56.3453 147.507 39.556 136.468 35.9773C134.787 35.291 132.969 35.0059 131.158 35.1447C129.348 35.2835 127.594 35.8423 126.038 36.7768C106.662 45.7997 54.2443 95.254 38.4848 119.239C36.7321 122.046 35.314 125.049 34.2594 128.185C33.0032 131.993 34.2594 136.066 39.0558 143.109C53.9397 165.457 104.416 211.637 126.038 222.83C131.1 225.457 133.993 225.952 137.039 224.772V224.619ZM133.232 219.784C129.768 219.099 120.213 213.046 110.164 205.203C79.4062 181.295 44.7657 145.736 40.0836 133.325C39.208 130.927 39.3222 129.899 41.0352 126.586C47.1259 114.746 69.8515 89.8098 95.5464 66.853C105.604 57.3651 116.656 48.9917 128.512 41.8783C129.574 41.2069 130.794 40.8254 132.05 40.772C133.305 40.7186 134.553 40.995 135.668 41.5738C153.674 48.5408 201.295 92.056 218.501 117.259C223.564 124.683 225.467 129.213 224.744 132.183C223.107 139.378 211.078 154.302 190.979 174.061C168.139 196.561 142.711 217.234 134.679 220.051C134.175 220.144 133.659 220.144 133.156 220.051L133.232 219.784ZM140.845 191.764C140.845 191.003 140.427 182.018 140.046 171.815L139.399 153.236H132.547C130.227 153.104 127.901 153.104 125.581 153.236C125.124 159.67 124.629 166.104 124.134 172.538L122.688 192.297V192.944H141.112L140.845 191.764ZM143.51 150.152C150.799 149.795 158.001 148.41 164.903 146.041C168.989 144.412 172.947 142.478 176.742 140.254C179.439 138.692 181.703 136.48 183.328 133.82C183.947 132.804 184.227 131.617 184.127 130.432C184.127 126.625 182.071 124.226 175.105 120C174.496 119.658 174.154 119.277 174.23 119.201C174.947 118.906 175.685 118.664 176.437 118.477L178.379 117.868C169.776 115.394 161.097 113.071 152.418 110.825C152.817 112.494 153.325 114.134 153.94 115.736L155.577 120.571H157.176L161.63 120.381H164.561L166.198 121.18C168.62 122.476 170.849 124.104 172.821 126.015C173.483 126.562 174.016 127.248 174.382 128.025C174.748 128.801 174.938 129.649 174.938 130.508C174.938 131.366 174.748 132.214 174.382 132.991C174.016 133.768 173.483 134.454 172.821 135C169.509 138.465 164.447 140.482 154.283 142.614C146.1 144.226 137.762 144.916 129.425 144.67C121.896 144.745 114.416 143.455 107.347 140.863C99.3149 137.817 95.356 134.543 95.2799 131.041C95.2038 127.538 101.256 122.589 111.572 118.972L114.77 117.792L112.258 116.383L105.025 112.272L100.305 109.607L97.1832 110.635C89.8461 112.752 83.028 116.369 77.1603 121.257C76.106 122.037 75.2406 123.044 74.6278 124.204C74.0151 125.364 73.6707 126.646 73.6201 127.957C73.5289 128.956 73.6478 129.964 73.969 130.914C74.2902 131.865 74.8067 132.738 75.4853 133.477C78.4165 137.284 85.6871 141.396 96.9167 145.317C107.253 148.208 117.899 149.844 128.626 150.191C133.613 150.191 138.599 150.191 143.624 150.191L143.51 150.152ZM138.599 138.731L137.534 102.449C137.534 102.449 140.312 102.259 143.548 102.221H149.372L140.503 81.891L131.481 61.4088C131.481 61.4088 128.322 70.3936 124.515 81.5484L117.549 102.069C117.549 102.297 118.462 102.335 122.041 102.335C123.617 102.274 125.195 102.338 126.761 102.526C126.761 102.526 125.999 128.871 125.619 137.855V141.32H138.866L138.599 138.731Z" fill="white"/>
<path d="M105.444 300.951C97.6401 301.713 95.5845 303.997 95.0896 308.566C94.6109 313.983 94.4077 319.422 94.4805 324.86V340.85C94.4805 351.319 92.7675 361.903 85.8395 369.213C82.7826 372.063 79.1882 374.275 75.2666 375.72C71.3449 377.164 67.1747 377.813 62.9996 377.626C55.2265 378.022 47.5456 375.797 41.1875 371.307C34.2595 365.786 30.6812 358.324 30.6812 344.695V313.896C30.6812 302.474 29.5773 301.827 20.3271 300.951V296.459H57.9368V300.951C48.8008 301.827 47.735 302.665 47.735 313.896V346.446C47.735 360.076 54.3966 369.289 67.4534 369.289C81.9567 369.289 88.2757 358.553 88.2757 340.279V325.05C88.2757 316.675 87.8951 312.258 87.6667 308.604C87.1718 303.007 83.86 301.789 75.257 301.294V296.459H105.444V300.951Z" fill="white"/>
<path d="M140.312 375.647V371.497C145.413 370.774 145.756 370.279 145.756 361.865V341.041C145.756 332.398 141.53 329.619 137.267 329.619C133.875 329.803 130.649 331.147 128.131 333.426V362.893C128.131 370.508 128.588 370.812 133.612 371.535V375.685H105.329V371.497C111.686 370.393 112.409 370.279 112.409 362.36V337.043C112.409 329.733 111.42 329.429 106.052 328.249V324.442C113.612 323.562 121.077 322.007 128.359 319.797C128.359 321.51 128.131 325.774 128.131 328.591C130.567 326.878 133.118 325.051 135.744 323.337C138.515 321.328 141.839 320.224 145.261 320.178C155.12 320.178 161.325 327.373 161.325 339.784V362.627C161.325 370.241 162.048 370.546 167.91 371.383V375.533L140.312 375.647Z" fill="white"/>
<path d="M174.42 375.647V371.498C180.967 370.66 181.729 370.165 181.729 361.523V337.767C181.729 329.581 181.12 329.125 175.372 328.363V324.556C182.827 323.707 190.198 322.242 197.412 320.178V361.675C197.412 369.937 197.907 370.812 205.025 371.65V375.8L174.42 375.647ZM188.657 312.526C186.36 312.506 184.162 311.593 182.527 309.98C180.893 308.366 179.951 306.18 179.901 303.883C179.911 302.732 180.149 301.594 180.601 300.535C181.053 299.476 181.711 298.517 182.535 297.714C183.36 296.91 184.336 296.278 185.406 295.854C186.476 295.429 187.62 295.221 188.771 295.241C189.921 295.211 191.066 295.412 192.137 295.833C193.207 296.255 194.182 296.888 195.003 297.695C195.824 298.501 196.473 299.465 196.914 300.528C197.354 301.592 197.575 302.733 197.564 303.883C197.549 305.037 197.307 306.176 196.851 307.235C196.395 308.294 195.734 309.253 194.906 310.056C194.078 310.859 193.1 311.49 192.028 311.914C190.955 312.338 189.81 312.546 188.657 312.526Z" fill="white"/>
<path d="M266.464 325.698C259.879 326.802 258.851 328.134 256.339 333.845C252.075 343.591 245.756 358.591 238.447 376.979H233.461C227.37 361.751 221.774 347.512 215.95 333.502C215.413 331.325 214.161 329.391 212.394 328.01C210.627 326.63 208.447 325.882 206.205 325.888V321.548H236.658V325.698C231.177 326.802 230.415 327.753 231.9 331.789C234.945 340.203 239.323 351.89 241.264 356.878C243.358 351.51 247.469 340.926 250.286 332.512C251.504 328.705 251.276 326.535 243.701 325.698V321.548H266.54L266.464 325.698Z" fill="white"/>
<path d="M316.294 363.692C313.953 367.57 310.701 370.817 306.82 373.153C302.939 375.488 298.547 376.841 294.025 377.094C277.694 377.094 268.444 365.025 268.444 350.444C268.553 342.23 271.826 334.376 277.58 328.515C282.543 323.261 289.39 320.193 296.613 319.987C299.236 319.967 301.837 320.464 304.267 321.451C306.697 322.437 308.909 323.893 310.776 325.736C312.643 327.578 314.128 329.77 315.147 332.187C316.166 334.605 316.698 337.199 316.713 339.822C316.713 341.916 316.713 343.972 315.114 344.352C312.83 344.962 295.624 345.799 283.823 346.294C284.318 359.2 291.436 365.786 300.268 365.786C305.414 365.719 310.356 363.769 314.162 360.304L316.294 363.692ZM294.139 325.088C289.267 325.088 285.117 330.799 284.394 340.317L299.126 339.936C300.839 339.936 301.562 339.594 301.562 337.538C301.676 331.561 298.897 325.088 294.139 325.088Z" fill="white"/>
<path d="M356.15 375.647H323.983V371.497C330.455 370.774 331.064 370.165 331.064 362.855V336.205C331.064 330.114 330.569 329.505 324.821 328.287V324.48C332.265 323.637 339.608 322.069 346.747 319.797V332.969C352.229 324.556 356.644 320.063 361.631 320.063C362.634 320.023 363.635 320.181 364.577 320.528C365.519 320.876 366.383 321.407 367.118 322.09C367.854 322.773 368.448 323.594 368.865 324.508C369.282 325.421 369.515 326.408 369.549 327.411C369.534 329.534 368.951 331.615 367.86 333.436C366.769 335.257 365.209 336.753 363.344 337.766C362.722 338.059 362.026 338.157 361.347 338.048C360.668 337.94 360.038 337.629 359.537 337.157C357.482 335.444 355.731 333.35 353.827 333.35C351.924 333.35 348.955 334.911 346.747 339.556V362.703C346.747 370.013 347.623 370.317 356.15 371.345V375.647Z" fill="white"/>
<path d="M407.805 337.386C404.608 328.858 400.496 324.975 394.748 324.975C393.893 324.943 393.041 325.087 392.244 325.399C391.447 325.711 390.723 326.183 390.116 326.786C389.509 327.389 389.032 328.111 388.716 328.906C388.4 329.701 388.25 330.553 388.277 331.409C388.277 335.673 391.322 337.995 397.641 340.812C407.501 345.19 414.2 349.34 414.2 358.934C414.2 371.155 402.78 377.094 392.046 377.094C386.68 376.864 381.414 375.57 376.553 373.287C376.096 370.508 374.992 362.094 374.611 357.83L378.646 357.107C381.197 364.721 386.26 371.954 394.101 371.954C394.987 372.064 395.887 371.981 396.738 371.712C397.589 371.442 398.372 370.992 399.034 370.392C399.695 369.792 400.219 369.057 400.57 368.235C400.921 367.414 401.091 366.527 401.067 365.634C401.067 361.827 399.24 359.048 391.665 355.393C384.09 351.739 375.829 347.208 375.829 337.119C375.829 327.03 383.747 319.949 396.652 319.949C401.099 320.036 405.52 320.649 409.823 321.777C410.203 325.051 411.269 332.855 411.764 336.129L407.805 337.386Z" fill="white"/>
<path d="M421.205 375.647V371.498C427.753 370.66 428.476 370.165 428.476 361.523V337.767C428.476 329.581 427.905 329.125 422.157 328.363V324.556C429.612 323.707 436.984 322.242 444.197 320.178V361.675C444.197 369.937 444.692 370.812 451.81 371.65V375.8L421.205 375.647ZM435.442 312.526C433.145 312.506 430.947 311.593 429.312 309.98C427.678 308.366 426.736 306.18 426.687 303.883C426.697 302.732 426.934 301.594 427.386 300.535C427.838 299.476 428.496 298.517 429.32 297.714C430.145 296.91 431.121 296.278 432.191 295.854C433.261 295.429 434.405 295.221 435.556 295.241C436.706 295.211 437.851 295.412 438.922 295.833C439.993 296.255 440.967 296.888 441.788 297.695C442.609 298.501 443.259 299.465 443.699 300.528C444.139 301.592 444.36 302.733 444.349 303.883C444.335 305.037 444.092 306.176 443.636 307.235C443.18 308.294 442.519 309.253 441.691 310.056C440.863 310.859 439.885 311.49 438.813 311.914C437.74 312.338 436.595 312.546 435.442 312.526Z" fill="white"/>
<path d="M482.72 375.761C481.186 376.522 479.518 376.975 477.809 377.094C468.445 377.094 462.849 372.715 462.849 361.637V327.639H455.236L454.513 326.193L458.053 321.548H463.04V311.459C467.189 308.528 473.165 304.606 477.429 301.713L478.989 302.665C478.989 305.977 478.647 312.411 478.761 321.7H490.942C491.447 322.689 491.623 323.812 491.445 324.908C491.267 326.004 490.744 327.014 489.953 327.792H478.761V357.487C478.761 367.005 482.568 368.109 484.966 368.109C486.986 368.099 488.981 367.671 490.828 366.852L492.046 371.269L482.72 375.761Z" fill="white"/>
<path d="M554.818 325.698C548.955 326.535 547.737 327.753 544.692 334.34C541.647 340.926 538.259 349.835 531.178 366.738C522.88 386.497 520.596 394.53 518.274 401.459C518.107 402.484 517.568 403.412 516.761 404.065C515.953 404.718 514.934 405.051 513.896 405C511.64 405.119 509.417 404.412 507.644 403.011C505.871 401.609 504.67 399.609 504.266 397.385C504.266 395.444 504.989 394.454 507.539 392.893C511.704 390.971 515.25 387.925 517.779 384.099C518.989 381.919 520.008 379.639 520.824 377.284C521.264 375.742 521.087 374.09 520.33 372.677C514.011 355.127 506.207 338.413 503.999 333.312C503.529 331.15 502.331 329.214 500.606 327.828C498.881 326.443 496.733 325.691 494.521 325.698V321.548H524.974V325.698C519.72 326.535 518.883 327.411 520.215 331.18L529.732 356.878C532.397 350.177 536.774 338.984 538.982 332.17C540.2 328.363 538.601 326.687 532.511 325.698V321.548H554.818V325.698Z" fill="white"/>
<path d="M615.001 320.102C618.673 319.972 622.333 320.592 625.759 321.922C629.184 323.253 632.302 325.268 634.923 327.843C637.545 330.419 639.614 333.501 641.006 336.902C642.398 340.304 643.082 343.953 643.018 347.627C643.214 351.46 642.641 355.293 641.331 358.899C640.021 362.506 638.001 365.814 635.391 368.627C632.78 371.439 629.633 373.7 626.134 375.275C622.635 376.85 618.856 377.707 615.02 377.796C611.184 377.886 607.369 377.205 603.801 375.794C600.233 374.383 596.983 372.271 594.245 369.582C591.507 366.894 589.336 363.684 587.86 360.141C586.384 356.599 585.633 352.797 585.652 348.96C585.636 345.124 586.387 341.323 587.863 337.782C589.338 334.241 591.508 331.032 594.243 328.342C596.978 325.653 600.224 323.538 603.789 322.123C607.354 320.708 611.166 320.021 615.001 320.102ZM613.516 324.975C608.301 324.975 603.162 330.457 603.162 345.419C603.162 360.381 608.149 372.069 615.838 372.069C620.482 372.069 625.469 368.909 625.469 351.13C625.469 334.226 621.092 324.975 613.516 324.975Z" fill="white"/>
<path d="M657.483 321.548V318.997C657.642 314.654 658.746 310.397 660.718 306.525C662.69 302.652 665.483 299.256 668.903 296.573C673.156 293.011 678.381 290.809 683.901 290.254C687.726 290.036 691.496 291.243 694.483 293.642C695.199 294.338 695.687 295.234 695.884 296.212C696.081 297.191 695.977 298.206 695.587 299.124C694.864 301.38 693.368 303.308 691.362 304.568C690.726 305.111 689.906 305.39 689.071 305.348C688.235 305.305 687.448 304.945 686.87 304.34C683.939 301.294 680.285 297.373 676.859 297.373C673.433 297.373 673.052 300.685 673.052 316.408V321.624H684.472C684.929 322.842 684.472 326.764 682.759 327.716H673.242V362.436C673.242 370.051 674.118 370.584 681.883 371.573V375.723H650.364V371.497C657.178 370.507 657.521 369.898 657.521 362.36V327.639H649.489L648.88 326.079L652.039 321.548H657.483Z" fill="white"/>
<path d="M758.968 294.746C764.348 294.58 769.706 295.51 774.716 297.479C779.726 299.448 784.283 302.415 788.11 306.201C791.938 309.986 794.956 314.51 796.981 319.498C799.006 324.486 799.995 329.834 799.89 335.216C799.89 361.142 781.389 377.475 758.359 377.475C752.86 377.657 747.38 376.717 742.256 374.713C737.131 372.709 732.468 369.682 728.55 365.818C724.632 361.953 721.543 357.331 719.469 352.234C717.395 347.136 716.38 341.67 716.486 336.168C716.334 315.343 731.18 294.746 758.968 294.746ZM757.141 300.115C744.731 300.115 735.595 312.297 735.595 333.845C735.595 354.442 743.742 371.917 760.186 371.917C771.606 371.917 780.78 360.724 780.78 338.414C780.78 314.505 771.264 300.115 757.141 300.115Z" fill="white"/>
<path d="M835.824 375.761C834.305 376.525 832.648 376.978 830.952 377.094C821.587 377.094 815.992 372.715 815.992 361.637V327.639H808.188L807.465 326.193L810.967 321.548H815.992V311.459C820.103 308.528 826.079 304.606 830.343 301.713L831.942 302.665C831.942 305.977 831.561 312.411 831.675 321.7H843.856C844.36 322.686 844.539 323.806 844.368 324.9C844.197 325.994 843.685 327.006 842.905 327.792H831.485V357.487C831.485 367.005 835.291 368.109 837.728 368.109C839.736 368.102 841.72 367.674 843.552 366.852L844.77 371.269L835.824 375.761Z" fill="white"/>
<path d="M875.185 375.761C873.662 376.516 872.007 376.969 870.312 377.094C860.91 377.094 855.314 372.715 855.314 361.637V327.639H847.51L846.787 326.193L850.327 321.548H855.314V311.459C859.463 308.528 865.44 304.606 869.703 301.713L871.264 302.665C871.264 305.977 870.921 312.411 871.035 321.7H883.141C883.645 322.689 883.821 323.812 883.643 324.908C883.465 326.004 882.942 327.014 882.151 327.792H870.959V357.487C870.959 367.005 874.766 368.109 877.164 368.109C879.184 368.102 881.181 367.674 883.026 366.852L884.244 371.269L875.185 375.761Z" fill="white"/>
<path d="M929.62 377.094C926.857 377.193 924.152 376.287 922.007 374.543C920.622 373.308 919.541 371.771 918.847 370.051C914.203 373.096 908.227 377.094 905.905 377.094C903.78 377.17 901.661 376.822 899.672 376.069C897.684 375.316 895.865 374.174 894.323 372.71C892.781 371.246 891.547 369.489 890.692 367.542C889.838 365.595 889.38 363.497 889.346 361.37C889.346 354.936 892.277 352.005 898.748 349.454C905.905 346.789 915.535 343.858 918.352 341.421V336.053C918.352 329.733 916.03 326.193 910.739 326.193C909.792 326.184 908.856 326.4 908.009 326.824C907.162 327.247 906.428 327.866 905.867 328.629C904.411 331.104 903.43 333.828 902.973 336.662C902.794 337.894 902.149 339.011 901.172 339.782C900.195 340.554 898.96 340.922 897.72 340.812C896.014 340.689 894.398 339.995 893.134 338.842C891.871 337.688 891.032 336.143 890.754 334.454C890.754 332.284 892.239 330.647 895.018 328.744C900.943 324.716 907.545 321.789 914.508 320.101C918.961 319.949 923.351 321.187 927.069 323.642C929.391 325.337 931.231 327.609 932.406 330.233C933.581 332.857 934.051 335.743 933.769 338.604V359.695C933.769 365.52 935.711 367.005 937.576 367.005C938.902 366.955 940.201 366.618 941.382 366.015L942.753 370.165L929.62 377.094ZM918.428 346.447L911.615 350.254C909.877 350.841 908.368 351.957 907.296 353.445C906.224 354.933 905.645 356.719 905.638 358.553C905.507 359.665 905.601 360.791 905.916 361.865C906.231 362.939 906.76 363.939 907.472 364.803C908.183 365.667 909.062 366.379 910.055 366.894C911.048 367.41 912.135 367.72 913.251 367.804C914.233 367.886 915.221 367.754 916.147 367.419C917.073 367.084 917.916 366.553 918.619 365.863L918.428 346.447Z" fill="white"/>
<path d="M1026.35 325.698C1020.48 326.802 1019.65 327.411 1016.98 333.845C1012.57 345.266 1007.35 360.038 1001.49 376.979H996.388C991.858 365.558 986.758 354.137 982.266 343.363C977.622 354.784 973.13 365.52 968.714 376.979H963.727C958.855 361.979 953.64 346.903 949.11 333.236C947.054 327.411 946.445 326.421 940.583 325.621V321.548H971.417V325.698C964.336 326.687 963.613 327.906 964.946 331.789C967.268 339.708 969.704 347.855 972.026 355.279C976.518 344.581 980.895 332.779 984.702 322.043H989.727C993.876 333.007 998.749 344.581 1003.51 355.774C1005.56 349.835 1009.71 337.995 1010.82 332.627C1011.88 328.134 1010.43 326.535 1001.91 325.698V321.548H1026.27L1026.35 325.698Z" fill="white"/>
<path d="M1068.98 377.094C1066.22 377.193 1063.51 376.287 1061.37 374.543C1060 373.301 1058.93 371.765 1058.25 370.051C1053.64 373.096 1047.66 377.094 1045.34 377.094C1043.22 377.17 1041.1 376.822 1039.11 376.069C1037.12 375.316 1035.3 374.174 1033.76 372.71C1032.22 371.246 1030.98 369.489 1030.13 367.542C1029.28 365.595 1028.82 363.497 1028.78 361.37C1028.78 354.936 1031.71 352.005 1038.15 349.454C1045.34 346.789 1054.97 343.858 1057.79 341.421V336.053C1057.79 329.733 1055.47 326.193 1050.18 326.193C1049.23 326.184 1048.29 326.4 1047.45 326.824C1046.6 327.247 1045.87 327.866 1045.3 328.629C1043.85 331.108 1042.86 333.83 1042.37 336.662C1042.21 337.895 1041.58 339.017 1040.6 339.791C1039.63 340.565 1038.4 340.931 1037.16 340.812C1035.41 340.74 1033.74 340.068 1032.43 338.91C1031.12 337.752 1030.25 336.179 1029.96 334.454C1029.96 332.284 1031.41 330.647 1034.23 328.744C1040.15 324.716 1046.75 321.789 1053.72 320.101C1058.17 319.949 1062.56 321.187 1066.28 323.642C1068.6 325.337 1070.44 327.609 1071.61 330.233C1072.79 332.857 1073.26 335.743 1072.98 338.604V359.695C1072.98 365.52 1074.92 367.005 1076.78 367.005C1078.11 366.955 1079.41 366.618 1080.59 366.015L1081.92 370.165L1068.98 377.094ZM1057.79 346.447L1050.94 350.254C1049.21 350.848 1047.71 351.966 1046.64 353.454C1045.58 354.941 1045 356.724 1045 358.553C1044.86 359.666 1044.95 360.794 1045.27 361.871C1045.58 362.947 1046.11 363.948 1046.82 364.814C1047.53 365.679 1048.41 366.391 1049.41 366.905C1050.4 367.419 1051.49 367.725 1052.61 367.804C1053.59 367.883 1054.58 367.751 1055.51 367.416C1056.43 367.081 1057.28 366.551 1057.98 365.863L1057.79 346.447Z" fill="white"/>
</g>
</mask>
<g mask="url(#mask0_5_33)">
<rect x="-49" y="-41" width="1232" height="492" fill="white"/>
</g>
<defs>
<linearGradient id="paint0_linear_5_33" x1="-49" y1="205" x2="1183" y2="205" gradientUnits="userSpaceOnUse">
<stop stop-color="#1172A5"/>
<stop offset="1" stop-color="#36B6FF"/>
</linearGradient>
<clipPath id="clip0_5_33">
<rect width="1082" height="405" fill="white"/>
</clipPath>
</defs>
</svg>
